<svg width="27" height="21" viewBox="0 0 27 21" fill="none" xmlns="http://www.w3.org/2000/svg">
<path d="M11.9016 9.0716L3.42159 0.591597C3.23566 0.40414 3.01446 0.255351 2.77074 0.153813C2.52702 0.052276 2.26561 0 2.00159 0C1.73756 0 1.47615 0.052276 1.23243 0.153813C0.988713 0.255351 0.767511 0.40414 0.581585 0.591597C0.209083 0.966321 0 1.47322 0 2.0016C0 2.52997 0.209083 3.03687 0.581585 3.4116L7.66158 10.4916L0.581585 17.5716C0.209083 17.9463 0 18.4532 0 18.9816C0 19.51 0.209083 20.0169 0.581585 20.3916C0.768465 20.577 0.990097 20.7236 1.23377 20.8231C1.47745 20.9227 1.73837 20.9731 2.00159 20.9716C2.2648 20.9731 2.52572 20.9227 2.7694 20.8231C3.01307 20.7236 3.2347 20.577 3.42159 20.3916L11.9016 11.9116C12.089 11.7257 12.2378 11.5045 12.3394 11.2607C12.4409 11.017 12.4932 10.7556 12.4932 10.4916C12.4932 10.2276 12.4409 9.96616 12.3394 9.72244C12.2378 9.47872 12.089 9.25752 11.9016 9.0716Z" fill="#000"/>
<path d="M25.8885 9.0716L17.4085 0.591597C17.2226 0.40414 17.0014 0.255351 16.7576 0.153813C16.5139 0.052276 16.2525 0 15.9885 0C15.7245 0 15.463 0.052276 15.2193 0.153813C14.9756 0.255351 14.7544 0.40414 14.5685 0.591597C14.196 0.966321 13.9869 1.47322 13.9869 2.0016C13.9869 2.52997 14.196 3.03687 14.5685 3.4116L21.6485 10.4916L14.5685 17.5716C14.196 17.9463 13.9869 18.4532 13.9869 18.9816C13.9869 19.51 14.196 20.0169 14.5685 20.3916C14.7554 20.577 14.977 20.7236 15.2207 20.8231C15.4643 20.9227 15.7253 20.9731 15.9885 20.9716C16.2517 20.9731 16.5126 20.9227 16.7563 20.8231C17 20.7236 17.2216 20.577 17.4085 20.3916L25.8885 11.9116C26.0759 11.7257 26.2247 11.5045 26.3262 11.2607C26.4278 11.017 26.4801 10.7556 26.4801 10.4916C26.4801 10.2276 26.4278 9.96616 26.3262 9.72244C26.2247 9.47872 26.0759 9.25752 25.8885 9.0716Z" fill="#000"/>
</svg>
