<svg width="27" height="21" viewBox="0 0 27 21" fill="none" xmlns="http://www.w3.org/2000/svg">
<path d="M14.5784 11.9L23.0584 20.38C23.2443 20.5674 23.4655 20.7162 23.7092 20.8177C23.953 20.9193 24.2144 20.9716 24.4784 20.9716C24.7424 20.9716 25.0038 20.9193 25.2475 20.8177C25.4913 20.7162 25.7125 20.5674 25.8984 20.38C26.2709 20.0052 26.48 19.4983 26.48 18.97C26.48 18.4416 26.2709 17.9347 25.8984 17.56L18.8184 10.48L25.8984 3.39996C26.2709 3.02523 26.48 2.51833 26.48 1.98996C26.48 1.46159 26.2709 0.954682 25.8984 0.579957C25.7115 0.394595 25.4899 0.247945 25.2462 0.148416C25.0025 0.0488867 24.7416 -0.00156243 24.4784 -4.0647e-05C24.2152 -0.00156243 23.9543 0.0488867 23.7106 0.148416C23.4669 0.247945 23.2453 0.394595 23.0584 0.579957L14.5784 9.05996C14.3909 9.24589 14.2421 9.46709 14.1406 9.71081C14.0391 9.95452 13.9868 10.2159 13.9868 10.48C13.9868 10.744 14.0391 11.0054 14.1406 11.2491C14.2421 11.4928 14.3909 11.714 14.5784 11.9Z" fill="#000"/>
<path d="M0.591512 11.9L9.0715 20.38C9.25742 20.5674 9.47863 20.7162 9.72235 20.8177C9.96606 20.9193 10.2275 20.9716 10.4915 20.9716C10.7555 20.9716 11.0169 20.9193 11.2607 20.8177C11.5044 20.7162 11.7256 20.5674 11.9115 20.38C12.284 20.0052 12.4931 19.4983 12.4931 18.97C12.4931 18.4416 12.284 17.9347 11.9115 17.56L4.83151 10.48L11.9115 3.39996C12.284 3.02523 12.4931 2.51833 12.4931 1.98996C12.4931 1.46159 12.284 0.954682 11.9115 0.579957C11.7246 0.394595 11.503 0.247945 11.2593 0.148416C11.0156 0.0488867 10.7547 -0.00156243 10.4915 -4.0647e-05C10.2283 -0.00156243 9.96736 0.0488867 9.72369 0.148416C9.48001 0.247945 9.25838 0.394595 9.0715 0.579957L0.591512 9.05996C0.404055 9.24589 0.255268 9.46709 0.153731 9.71081C0.0521937 9.95452 -7.75433e-05 10.2159 -7.75433e-05 10.48C-7.75433e-05 10.744 0.0521937 11.0054 0.153731 11.2491C0.255268 11.4928 0.404055 11.714 0.591512 11.9Z" fill="#000"/>
</svg>
