<svg width="35" height="35" viewBox="0 0 35 35" fill="none" xmlns="http://www.w3.org/2000/svg">
<path d="M15.5149 0.342617C7.29041 0.342617 0.599976 7.03305 0.599976 15.2576C0.599976 23.4821 7.29041 30.1726 15.5149 30.1726C18.0292 30.1726 20.5008 29.576 22.5889 28.4254C22.7562 28.6267 22.9416 28.8121 23.1429 28.9794L27.4043 33.2408C27.7978 33.6835 28.2776 34.0412 28.8143 34.2918C29.3511 34.5424 29.9333 34.6807 30.5254 34.6981C31.1175 34.7156 31.7069 34.6118 32.2575 34.3932C32.808 34.1746 33.308 33.8458 33.7269 33.4269C34.1457 33.0081 34.4746 32.508 34.6932 31.9575C34.9118 31.4069 35.0155 30.8175 34.9981 30.2255C34.9807 29.6334 34.8424 29.0511 34.5918 28.5144C34.3412 27.9777 33.9835 27.4978 33.5408 27.1043L29.2793 22.8429C29.0718 22.6353 28.8433 22.4496 28.5975 22.2889C29.7481 20.2008 30.4725 17.7718 30.4725 15.215C30.4725 6.99043 23.7821 0.300003 15.5576 0.300003L15.5149 0.342617ZM15.5149 4.60404C21.4383 4.60404 26.1685 9.33421 26.1685 15.2576C26.1685 18.0701 25.1458 20.6696 23.356 22.5872C23.3133 22.6298 23.2707 22.6725 23.2281 22.7151C23.0268 22.8823 22.8414 23.0678 22.6741 23.2691C20.7991 24.9736 18.2423 25.9538 15.4723 25.9538C9.54896 25.9538 4.81878 21.2236 4.81878 15.3002C4.81878 9.37683 9.54896 4.64665 15.4723 4.64665L15.5149 4.60404Z" fill="#434343"/>
</svg>
